<?xml version="1.0" encoding="utf-8"?>
<!-- Generator: Adobe Illustrator 17.0.0, SVG Export Plug-In . SVG Version: 6.00 Build 0)  -->
<!DOCTYPE svg PUBLIC "-//W3C//DTD SVG 1.1//EN" "http://www.w3.org/Graphics/SVG/1.1/DTD/svg11.dtd">
<svg version="1.1" id="レイヤー_1" xmlns="http://www.w3.org/2000/svg" xmlns:xlink="http://www.w3.org/1999/xlink" x="0px"
	 y="0px" width="1000px" height="1000px" viewBox="0 0 1000 1000" enable-background="new 0 0 1000 1000" xml:space="preserve">
<rect x="-9.5" y="-17.5" fill="#EB4A4B" width="1028" height="1030"/>
<g opacity="0.9">
	<path fill="none" stroke="#FFFFFF" stroke-width="8" stroke-linejoin="round" stroke-miterlimit="10" d="M848.444,625.792
		c-18.079,2.804-42.091,4.348-67.611,4.348s-49.532-1.544-67.611-4.348c-11.323-1.756-18.404-3.692-22.819-5.608l17.239,25.751
		l9.226,59.31h0.017c0.493,5.413,28.925,9.778,63.948,9.778s63.455-4.365,63.948-9.778h0.017l9.226-59.31l17.239-25.751
		C866.847,622.1,859.766,624.036,848.444,625.792z"/>
	<path fill="none" stroke="#FFFFFF" stroke-width="8" stroke-linejoin="round" stroke-miterlimit="10" d="M688.135,601.042
		c0.007,0.021,1.621,4.379,26.864,8.174c17.723,2.664,41.103,4.131,65.833,4.131s48.111-1.467,65.833-4.131
		c25.243-3.794,26.856-8.152,26.866-8.194l18.125-203.223c-5.886,4.992-20.32,7.802-31.818,9.585
		c-21.122,3.275-49.18,5.079-79.006,5.079s-57.885-1.804-79.006-5.079c-19.453-3.016-28.082-6.414-31.81-9.495L688.135,601.042z"/>
	<path fill="none" stroke="#FFFFFF" stroke-width="8" stroke-linecap="round" stroke-linejoin="round" stroke-miterlimit="10" d="
		M780.833,365.458c-29.605,0-57.42,1.785-78.323,5.026c-25.153,3.901-30.661,8.487-30.661,9.925s5.508,6.024,30.661,9.925
		c20.903,3.241,48.718,5.026,78.323,5.026s57.42-1.785,78.323-5.026c25.154-3.901,30.662-8.487,30.662-9.925
		s-5.508-6.024-30.662-9.925"/>
	<path fill="none" stroke="#FFFFFF" stroke-width="4" stroke-linecap="round" stroke-linejoin="round" stroke-miterlimit="10" d="
		M684.021,563.846c0,1.277,4.893,5.351,27.237,8.816c18.568,2.879,43.277,4.465,69.576,4.465c26.298,0,51.007-1.586,69.575-4.465
		c22.344-3.465,27.237-7.539,27.237-8.816"/>
	<path fill="none" stroke="#FFFFFF" stroke-width="4" stroke-linecap="round" stroke-linejoin="round" stroke-miterlimit="10" d="
		M673.43,437.452c0,1.417,5.429,5.937,30.216,9.781c20.599,3.194,48.011,4.954,77.187,4.954c29.175,0,56.587-1.759,77.187-4.954
		c24.789-3.844,30.217-8.364,30.217-9.781"/>
	<path fill="none" stroke="#FFFFFF" stroke-width="8" stroke-linejoin="round" stroke-miterlimit="10" d="M921.711,207.035
		c-7.595-7.595-11.916-6.375-12.018-6.302l-84.866,88.785l0.015,0.006c-0.115,0.061-0.206,0.132-0.24,0.226
		c-0.005,0.014,0.002,0.031-0.001,0.046l-0.011-0.004l-21.107,84.514c0,1.959,6.542,3.547,14.613,3.547
		c7.984,0,14.462-1.555,14.6-3.485l17.698-72.546l77.611-82.342C928.004,219.481,929.943,215.267,921.711,207.035z"/>
</g>
<g opacity="0.9">
	<path fill="none" stroke="#FFFFFF" stroke-width="8" stroke-linejoin="round" stroke-miterlimit="10" d="M567.588,625.792
		c-18.079,2.804-42.091,4.348-67.611,4.348s-49.532-1.544-67.611-4.348c-11.323-1.756-18.404-3.692-22.819-5.608l17.239,25.751
		l9.226,59.31h0.017c0.493,5.413,28.925,9.778,63.948,9.778s63.455-4.365,63.948-9.778h0.017l9.226-59.31l17.239-25.751
		C585.992,622.1,578.911,624.036,567.588,625.792z"/>
	<path fill="none" stroke="#FFFFFF" stroke-width="8" stroke-linejoin="round" stroke-miterlimit="10" d="M407.279,601.042
		c0.007,0.021,1.621,4.379,26.864,8.174c17.723,2.664,41.103,4.131,65.833,4.131c24.73,0,48.111-1.467,65.833-4.131
		c25.243-3.794,26.856-8.152,26.866-8.194l18.126-203.223c-5.886,4.992-20.32,7.802-31.818,9.585
		c-21.122,3.275-49.18,5.079-79.006,5.079s-57.885-1.804-79.006-5.079c-19.453-3.016-28.082-6.414-31.81-9.495L407.279,601.042z"/>
	<path fill="none" stroke="#FFFFFF" stroke-width="8" stroke-linecap="round" stroke-linejoin="round" stroke-miterlimit="10" d="
		M499.977,365.458c-29.605,0-57.42,1.785-78.323,5.026c-25.153,3.901-30.661,8.487-30.661,9.925s5.508,6.024,30.661,9.925
		c20.903,3.241,48.718,5.026,78.323,5.026c29.605,0,57.42-1.785,78.323-5.026c25.154-3.901,30.662-8.487,30.662-9.925
		s-5.508-6.024-30.662-9.925"/>
	<path fill="none" stroke="#FFFFFF" stroke-width="4" stroke-linecap="round" stroke-linejoin="round" stroke-miterlimit="10" d="
		M403.165,563.846c0,1.277,4.893,5.351,27.237,8.816c18.568,2.879,43.277,4.465,69.576,4.465s51.007-1.586,69.575-4.465
		c22.344-3.465,27.237-7.539,27.237-8.816"/>
	<path fill="none" stroke="#FFFFFF" stroke-width="4" stroke-linecap="round" stroke-linejoin="round" stroke-miterlimit="10" d="
		M392.574,437.452c0,1.417,5.428,5.937,30.216,9.781c20.599,3.194,48.011,4.954,77.187,4.954c29.175,0,56.587-1.759,77.187-4.954
		c24.789-3.844,30.217-8.364,30.217-9.781"/>
	<path fill="none" stroke="#FFFFFF" stroke-width="8" stroke-linejoin="round" stroke-miterlimit="10" d="M640.855,207.035
		c-7.595-7.595-11.916-6.375-12.018-6.302l-84.866,88.785l0.015,0.006c-0.115,0.061-0.206,0.132-0.24,0.226
		c-0.005,0.014,0.002,0.031-0.001,0.046l-0.011-0.004l-21.107,84.514c0,1.959,6.542,3.547,14.613,3.547
		c7.984,0,14.462-1.555,14.6-3.485l17.698-72.546l77.611-82.342C647.149,219.481,649.087,215.267,640.855,207.035z"/>
</g>
<g opacity="0.9">
	<path fill="none" stroke="#FFFFFF" stroke-width="8" stroke-linejoin="round" stroke-miterlimit="10" d="M151.607,625.792
		c18.079,2.804,42.091,4.348,67.611,4.348s49.532-1.544,67.611-4.348c11.323-1.756,18.404-3.692,22.819-5.608l-17.239,25.751
		l-9.226,59.31h-0.017c-0.493,5.413-28.925,9.778-63.948,9.778s-63.455-4.365-63.948-9.778h-0.017l-9.226-59.31l-17.239-25.751
		C133.203,622.1,140.284,624.036,151.607,625.792z"/>
	<path fill="none" stroke="#FFFFFF" stroke-width="8" stroke-linejoin="round" stroke-miterlimit="10" d="M311.916,601.042
		c-0.007,0.021-1.621,4.379-26.864,8.174c-17.723,2.664-41.103,4.131-65.833,4.131s-48.111-1.467-65.833-4.131
		c-25.243-3.794-26.856-8.152-26.866-8.194l-18.126-203.223c5.886,4.992,20.32,7.802,31.818,9.585
		c21.122,3.275,49.18,5.079,79.006,5.079s57.885-1.804,79.006-5.079c19.453-3.016,28.082-6.414,31.81-9.495L311.916,601.042z"/>
	<path fill="none" stroke="#FFFFFF" stroke-width="8" stroke-linecap="round" stroke-linejoin="round" stroke-miterlimit="10" d="
		M219.218,365.458c29.605,0,57.42,1.785,78.323,5.026c25.153,3.901,30.661,8.487,30.661,9.925s-5.508,6.024-30.661,9.925
		c-20.903,3.241-48.718,5.026-78.323,5.026s-57.42-1.785-78.323-5.026c-25.154-3.901-30.662-8.487-30.662-9.925
		s5.508-6.024,30.662-9.925"/>
	<path fill="none" stroke="#FFFFFF" stroke-width="4" stroke-linecap="round" stroke-linejoin="round" stroke-miterlimit="10" d="
		M316.03,563.846c0,1.277-4.893,5.351-27.237,8.816c-18.568,2.879-43.277,4.465-69.576,4.465s-51.007-1.586-69.575-4.465
		c-22.344-3.465-27.237-7.539-27.237-8.816"/>
	<path fill="none" stroke="#FFFFFF" stroke-width="4" stroke-linecap="round" stroke-linejoin="round" stroke-miterlimit="10" d="
		M326.621,437.452c0,1.417-5.428,5.937-30.216,9.781c-20.599,3.194-48.011,4.954-77.187,4.954s-56.587-1.759-77.187-4.954
		c-24.789-3.844-30.217-8.364-30.217-9.781"/>
	<path fill="none" stroke="#FFFFFF" stroke-width="8" stroke-linejoin="round" stroke-miterlimit="10" d="M78.34,207.035
		c7.595-7.595,11.916-6.375,12.018-6.302l84.866,88.785l-0.015,0.006c0.115,0.061,0.206,0.132,0.24,0.226
		c0.005,0.014-0.002,0.031,0.001,0.046l0.011-0.004l21.107,84.514c0,1.959-6.542,3.547-14.613,3.547
		c-7.984,0-14.462-1.555-14.6-3.485l-17.698-72.546L72.046,219.48C72.046,219.481,70.108,215.267,78.34,207.035z"/>
</g>
</svg>
